<?xml version="1.0" encoding="UTF-8"?>
<svg id="Livello_1" data-name="Livello 1" xmlns="http://www.w3.org/2000/svg" viewBox="0 0 53.74 57.62">
  <defs>
    <style>
      .cls-1 {
        fill: #1d1d1b;
      }

      .cls-2 {
        fill: #fdc300;
      }
    </style>
  </defs>
  <path class="cls-1" d="M19.59,41.55c-3.95-2.86-6.52-7.5-6.52-12.75,0-8.69,7.05-15.73,15.73-15.73,6.09,0,11.38,3.47,13.99,8.53l10.94-7.24C48.75,5.78,39.46,0,28.81,0,12.9,0,0,12.9,0,28.81c0,8.62,3.79,16.36,9.8,21.64,2.27-3.88,5.69-7,9.8-8.89Z"/>
  <path class="cls-1" d="M53.65,43.39l-10.93-7.23c-1.13,2.14-2.74,3.98-4.69,5.39,4.1,1.9,7.52,5.02,9.79,8.89,2.3-2.02,4.27-4.4,5.83-7.05Z"/>
  <g>
    <path class="cls-2" d="M28.81,39.52c-5.91,0-10.71-4.8-10.71-10.71s4.8-10.71,10.71-10.71,10.71,4.8,10.71,10.71-4.8,10.71-10.71,10.71Z"/>
    <path class="cls-2" d="M38.03,41.55c-2.53,1.83-5.63,2.93-8.99,2.98-.08,0-.15,0-.23,0s-.15,0-.23,0c-3.36-.05-6.46-1.15-8.99-2.98-4.1,1.9-7.52,5.02-9.8,8.89,1.26,1.11,2.61,2.11,4.05,2.98,4.36,2.66,9.48,4.19,14.97,4.19s10.6-1.53,14.97-4.19c1.44-.87,2.79-1.88,4.05-2.98-2.27-3.88-5.69-7-9.79-8.89Z"/>
  </g>
</svg>